<?xml version="1.0" encoding="UTF-8" standalone="no"?>
<svg
   xmlns="http://www.w3.org/2000/svg"
   version="1.1"
   width="398.811"
   height="304.552">
<path
     style="fill:white;fill-opacity:1;fill-rule:evenodd;stroke:none"
     d="m 299.486,1.1195313e-4 c 46.9045,0 86.221,27.22191004687 96.62488,63.80970004687 l 0.005,-0.005 c 0,0 1.09799,2.88813 1.86237,8.51601 0.54775,3.53226 0.833,7.13401 0.833,10.79114 0,9.82101 -1.4655,19.819148 -3.696,29.350288 -7.43313,31.75866 -21.87812,55.53644 -32.83163,66.48983 l -0.46412,0.46387 c 0,0 -2.51438,2.0275 -2.81912,2.16988 -0.30501,0.14212 0.23349,-0.67075 0.96524,-2.96713 0.73163,-2.29638 2.10688,-6.35526 3.12063,-15.47752 0.75325,-6.77976 0.4985,-13.44651 0.31813,-16.42402 -17.275,12.16989 -39.57338,19.50665 -63.918,19.50665 -54.84625,0 -99.32463,-37.21817 -99.32463,-83.111848 0,-45.89368 44.47838,-83.1119700468749 99.32463,-83.1119700468749 z M 255.05212,121.35426 c -1.68799,0 -2.99975,0.6385 -3.9305,1.906 -0.9255,1.272 -1.39112,3.04438 -1.39112,5.31638 0,4.72751 1.77725,7.09376 5.32162,7.09376 1.49,0 3.29175,-0.371 5.41063,-1.11863 l 0,3.77213 c -1.73763,0.7225 -3.68288,1.08888 -5.8315,1.08888 -3.08375,0 -5.44,-0.93538 -7.07388,-2.80663 -1.6335,-1.87125 -2.45025,-4.55926 -2.45025,-8.05888 0,-2.20288 0.40075,-4.13363 1.203,-5.79189 0.80188,-1.65837 1.95525,-2.93075 3.46,-3.8165 1.49988,-0.88125 3.26238,-1.327 5.282,-1.327 2.05938,0 4.12838,0.49987 6.20763,1.49525 l -1.45038,3.65313 c -0.79225,-0.37625 -1.58912,-0.703 -2.391,-0.985 -0.80187,-0.28238 -1.58912,-0.421 -2.36625,-0.421 z m 8.47488,17.76652 0,-21.20178 4.49513,0 0,21.20178 -4.49513,0 z m 24.15225,-11.90514 8.41075,0 0,10.98926 c -1.36125,0.44575 -2.64363,0.7575 -3.8515,0.93575 -1.20263,0.18325 -2.43038,0.27213 -3.68788,0.27213 -3.20287,0 -5.64312,-0.94038 -7.33112,-2.82151 -1.688,-1.88112 -2.52963,-4.584 -2.52963,-8.09863 0,-3.42563 0.97513,-6.09376 2.93538,-8.00963 1.9555,-1.91051 4.67325,-2.87113 8.14312,-2.87113 2.17313,0 4.27225,0.43575 6.29188,1.30712 l -1.48988,3.59363 c -1.5495,-0.77212 -3.1585,-1.15837 -4.83175,-1.15837 -1.94525,0 -3.49962,0.65337 -4.66787,1.9605 -1.17325,1.30188 -1.7575,3.05938 -1.7575,5.26188 0,2.30213 0.4705,4.05926 1.41587,5.27213 0.94038,1.21288 2.31163,1.82163 4.10888,1.82163 0.94037,0 1.89062,-0.0989 2.86112,-0.292 l 0,-4.42063 -4.01987,0 0,-3.74213 z m 12.01475,11.90514 0,-7.13339 -1,0.59425 -1.63837,-2.84637 2.63837,-1.60901 0,-10.20726 4.495,0 0,7.48464 2.07388,-1.27701 1.698,2.84138 -3.77188,2.29176 0,6.14838 8.6035,0 0,3.71263 -13.0985,0 z m 34.58263,-10.62814 c 0,3.50963 -0.87126,6.20263 -2.61351,8.08863 -1.73762,1.88613 -4.2325,2.83151 -7.47999,2.83151 -3.25238,0 -5.74225,-0.94538 -7.48488,-2.83151 -1.74225,-1.886 -2.6085,-4.58888 -2.6085,-8.11838 0,-3.5295 0.87125,-6.22738 2.6135,-8.08863 1.7475,-1.86138 4.24737,-2.79176 7.50962,-2.79176 3.257,0 5.74725,0.94038 7.47463,2.81651 1.72275,1.87625 2.58913,4.57413 2.58913,8.09363 z m -15.47438,0 c 0,2.36625 0.45037,4.14813 1.3465,5.35113 0.901,1.198 2.2425,1.79713 4.03438,1.79713 3.58412,0 5.38087,-2.386 5.38087,-7.14826 0,-4.77713 -1.78688,-7.16813 -5.35112,-7.16813 -1.79213,0 -3.13863,0.60412 -4.04925,1.80712 -0.906,1.20301 -1.36138,2.98988 -1.36138,5.36101 z m 30.93412,4.74238 c 0,1.91088 -0.688,3.42075 -2.06425,4.52451 -1.37625,1.09912 -3.29675,1.65325 -5.75225,1.65325 -2.262,0 -4.26187,-0.4255 -6.0045,-1.277 l 0,-4.17788 c 1.4305,0.6385 2.64338,1.08887 3.63338,1.34637 0.99037,0.26225 1.901,0.39588 2.72262,0.39588 0.985,0 1.74263,-0.18825 2.26738,-0.56913 0.52975,-0.37625 0.79187,-0.93575 0.79187,-1.683 0,-0.41112 -0.11862,-0.78237 -0.3515,-1.10913 -0.22737,-0.32175 -0.569,-0.6335 -1.01975,-0.93537 -0.45025,-0.29738 -1.36625,-0.7775 -2.74712,-1.43575 -1.29713,-0.60875 -2.26738,-1.19313 -2.91575,-1.75226 -0.64838,-0.5595 -1.16325,-1.21287 -1.5545,-1.9605 -0.38613,-0.74225 -0.57925,-1.61362 -0.57925,-2.6085 0,-1.87625 0.63887,-3.35125 1.90587,-4.42563 1.2725,-1.06938 3.02963,-1.609 5.27213,-1.609 1.10375,0 2.15325,0.13387 3.15812,0.39112 1,0.26263 2.0445,0.62863 3.13875,1.10413 l -1.45075,3.49475 c -1.1335,-0.46525 -2.06925,-0.787 -2.80662,-0.97012 -0.73763,-0.18325 -1.46513,-0.2775 -2.183,-0.2775 -0.8515,0 -1.50488,0.19812 -1.9555,0.59425 -0.45538,0.39575 -0.68325,0.91562 -0.68325,1.5545 0,0.39575 0.0894,0.74225 0.2775,1.03425 0.18312,0.29725 0.47512,0.57938 0.87625,0.85638 0.40075,0.2775 1.35137,0.7725 2.84637,1.48537 1.98488,0.95038 3.34125,1.90063 4.079,2.85138 0.73238,0.95025 1.09875,2.1185 1.09875,3.50463 z m 5.76713,-1.14838 -3.53937,0 -0.73738,-14.16764 5.0145,0 -0.73775,14.16764 z m -4.33625,4.95989 c 0,-0.81176 0.21787,-1.42551 0.65337,-1.84138 0.4355,-0.41563 1.06438,-0.62363 1.896,-0.62363 0.80675,0 1.4255,0.21288 1.86625,0.6385 0.4405,0.42588 0.65838,1.03463 0.65838,1.82651 0,0.7625 -0.22288,1.36637 -0.66825,1.80712 -0.44088,0.44038 -1.0595,0.65838 -1.85638,0.65838 -0.81175,0 -1.44075,-0.213 -1.88112,-0.64388 -0.44538,-0.4305 -0.66825,-1.03925 -0.66825,-1.82162 z m -86.129,-36.78905 c 0,3.39088 -0.86138,6.05901 -2.57413,8.00464 -1.71787,1.94037 -4.10387,2.91537 -7.15825,2.91537 -3.12337,0 -5.53425,-0.95525 -7.23225,-2.86612 -1.693,-1.91051 -2.5445,-4.60351 -2.5445,-8.08376 0,-3.455008 0.8515,-6.128508 2.55438,-8.029138 1.703,-1.901 4.11875,-2.85125 7.25212,-2.85125 3.04438,0 5.42063,0.97012 7.13338,2.9005 1.71287,1.93575 2.56925,4.60388 2.56925,8.009758 z m -16.89513,0 c 0,2.87113 0.60875,5.04913 1.8315,6.52926 1.22275,1.485 2.99975,2.22763 5.33125,2.22763 2.34638,0 4.12375,-0.73775 5.32175,-2.21776 1.19788,-1.48 1.79675,-3.65813 1.79675,-6.53913 0,-2.856378 -0.59387,-5.019498 -1.79187,-6.495008 -1.193,-1.47 -2.96038,-2.20737 -5.29688,-2.20737 -2.35137,0 -4.13825,0.74225 -5.361,2.22237 -1.22275,1.48526 -1.8315,3.64351 -1.8315,6.480008 z m 37.32413,-0.17825 c 0,3.49963 -0.95037,6.17776 -2.85137,8.02914 -1.90063,1.85137 -4.63325,2.77725 -8.20238,2.77725 l -5.87088,0 0,-21.201778 6.4945,0 c 3.29701,0 5.86138,0.91063 7.68788,2.74213 1.82662,1.827 2.74225,4.37601 2.74225,7.653258 z m -2.61362,0.0892 c 0,-2.767378 -0.693,-4.851498 -2.07913,-6.252128 -1.38613,-1.401 -3.45013,-2.104 -6.18275,-2.104 l -3.58412,0 0,16.939768 2.99987,0 c 2.9405,0 5.14838,-0.72275 6.62838,-2.16851 1.48012,-1.44525 2.21775,-3.58363 2.21775,-6.41513 z m 23.04287,-0.0892 c 0,3.49963 -0.95025,6.17776 -2.85125,8.02914 -1.90063,1.85137 -4.63325,2.77725 -8.2025,2.77725 l -5.87088,0 0,-21.201778 6.4945,0 c 3.29713,0 5.86138,0.91063 7.688,2.74213 1.82651,1.827 2.74213,4.37601 2.74213,7.653258 z m -2.6135,0.0892 c 0,-2.767378 -0.69313,-4.851498 -2.07925,-6.252128 -1.38613,-1.401 -3.45013,-2.104 -6.18275,-2.104 l -3.584,0 0,16.939768 2.99975,0 c 2.94063,0 5.14837,-0.72275 6.6285,-2.16851 1.48,-1.44525 2.21775,-3.58363 2.21775,-6.41513 z m 19.44425,10.71714 -2.63875,-6.74226 -8.49937,0 -2.60888,6.74226 -2.49488,0 8.38063,-21.291028 2.07425,0 8.34137,21.291028 -2.55437,0 z m -3.40587,-8.96501 -2.46513,-6.568878 c -0.322,-0.83163 -0.64875,-1.85138 -0.98537,-3.05926 -0.2125,0.93075 -0.51975,1.9505 -0.9155,3.05926 l -2.49488,6.568878 6.86088,0 z m 5.74687,14.54889 c -0.911,0 -1.6235,-0.12862 -2.14825,-0.39125 l 0,-2.10363 c 0.68813,0.19313 1.40063,0.292 2.14825,0.292 0.95525,0 1.68313,-0.292 2.183,-0.87125 0.495,-0.579 0.74775,-1.41562 0.74775,-2.50975 l 0,-21.201778 2.465,0 0,20.998648 c 0,1.83651 -0.46525,3.26238 -1.396,4.27226 -0.9255,1.00988 -2.26212,1.51475 -3.99975,1.51475 z m 22.5135,-5.58388 -11.82125,0 0,-21.201778 11.82125,0 0,2.18801 -9.35612,0 0,6.83113 8.78675,0 0,2.177998 -8.78675,0 0,7.80176 9.35612,0 0,2.20288 z" /><path
     style="fill:white;fill-opacity:1;fill-rule:nonzero;stroke:none"
     d="m 36.8755,206.73998 c 0,7.31264 -2.084875,12.91352 -6.244375,16.8034 -4.16975,3.88988 -10.17525,5.83976 -18.037875,5.83976 l -12.581625,0 0,-44.42568 13.951125,0 c 7.25025,0 12.882375,1.90838 16.896625,5.74613 4.003875,3.8275 6.016125,9.16939 6.016125,16.03639 z m -9.7915,0.24875 c 0,-9.54288 -4.21125,-14.31426 -12.634125,-14.31426 l -5.020125,0 0,28.92928 4.045375,0 c 9.075875,0 13.608875,-4.87525 13.608875,-14.61502 z m 29.768,-5.62188 c -1.960125,0 -3.50575,0.62225 -4.6155,1.867 -1.120375,1.24476 -1.75325,3.01851 -1.919125,5.30039 l 13.007125,0 c -0.04138,-2.28188 -0.6325,-4.05563 -1.79425,-5.30039 -1.151625,-1.24475 -2.7075,-1.867 -4.67825,-1.867 z m 1.307125,28.62816 c -5.46625,0 -9.739875,-1.51437 -12.820375,-4.5325 -3.081,-3.01863 -4.615875,-7.29214 -4.615875,-12.82077 0,-5.69451 1.420875,-10.09251 4.262875,-13.20414 2.85275,-3.11175 6.78375,-4.66763 11.80425,-4.66763 4.802625,0 8.54675,1.36913 11.21275,4.10738 2.675875,2.728 4.01425,6.51401 4.01425,11.32689 l 0,4.50175 -21.906875,0 c 0.1035,2.63451 0.881625,4.68813 2.333625,6.17176 1.462625,1.47263 3.506125,2.2195 6.1405,2.2195 2.0435,0 3.983125,-0.21787 5.808625,-0.64312 1.825875,-0.42513 3.724,-1.09938 5.715375,-2.03275 l 0,7.16738 c -1.6285,0.809 -3.3605,1.41063 -5.196625,1.80463 -1.8465,0.40462 -4.097125,0.60162 -6.7525,0.60162 z m 49.248005,-0.61187 -9.26288,0 0,-19.8429 c 0,-2.44776 -0.414875,-4.29413 -1.234125,-5.51801 -0.819625,-1.22388 -2.10575,-1.83613 -3.868875,-1.83613 -2.3755,0 -4.097125,0.87125 -5.165875,2.61388 -1.0785,1.74263 -1.617875,4.60563 -1.617875,8.59889 l 0,15.98427 -9.262875,0 0,-33.97004 7.07425,0 1.24475,4.34588 0.51875,0 c 0.91275,-1.56626 2.22975,-2.79001 3.95175,-3.66138 1.72175,-0.8815 3.70275,-1.32763 5.92275,-1.32763 5.092745,0 8.536505,1.65963 10.341505,4.98901 l 0.8195,0 c 0.91274,-1.58676 2.25075,-2.81101 4.02449,-3.68226 1.77338,-0.87125 3.77538,-1.30675 5.99526,-1.30675 3.85862,0 6.76274,0.98538 8.74424,2.96638 1.97075,1.97088 2.95613,5.13463 2.95613,9.49076 l 0,22.15603 -9.29413,0 0,-19.8429 c 0,-2.44776 -0.41487,-4.29413 -1.23412,-5.51801 -0.8195,-1.22388 -2.10575,-1.83613 -3.86888,-1.83613 -2.27162,0 -3.97275,0.80925 -5.09325,2.42713 -1.12,1.6285 -1.6905,4.20101 -1.6905,7.71739 l 0,17.05252 z M 142.932,212.33062 c 0,3.37112 0.54987,5.91238 1.64938,7.63438 1.10987,1.72175 2.90412,2.58275 5.39362,2.58275 2.479,0 4.25275,-0.861 5.34188,-2.5725 1.07862,-1.71138 1.61825,-4.25263 1.61825,-7.64463 0,-3.36088 -0.53963,-5.88126 -1.63913,-7.56151 -1.08887,-1.68051 -2.8835,-2.52063 -5.37262,-2.52063 -2.47925,0 -4.26338,0.82987 -5.35263,2.49975 -1.0995,1.68025 -1.63875,4.20101 -1.63875,7.58239 z m 23.48363,0 c 0,5.53888 -1.45238,9.86413 -4.37738,12.97589 -2.91475,3.12237 -6.97037,4.6885 -12.17725,4.6885 -3.26737,0 -6.14062,-0.71575 -8.63012,-2.14725 -2.49975,-1.43113 -4.40825,-3.4745 -5.74613,-6.15076 -1.33837,-2.67588 -2.002,-5.79826 -2.002,-9.36638 0,-5.54926 1.44175,-9.86427 4.33563,-12.94477 2.90437,-3.07038 6.97037,-4.61588 12.219,-4.61588 3.26737,0 6.14062,0.70513 8.62974,2.12625 2.48951,1.42088 4.40863,3.45413 5.7465,6.10938 1.338,2.65538 2.00201,5.76714 2.00201,9.32502 z m 14.00212,-1.42088 4.04538,-5.16576 9.51162,-10.33088 10.45563,0 -13.49475,14.72876 14.314,19.24128 -10.70438,0 -9.78125,-13.7644 -3.98312,3.18438 0,10.58002 -9.26288,0 0,-47.28869 9.26288,0 0,21.0979 -0.4875,7.71739 0.12437,0 z m 46.09488,-16.13977 c 1.255,0 2.30237,0.0931 3.13225,0.26962 l -0.70513,8.69214 c -0.74687,-0.197 -1.65962,-0.30088 -2.728,-0.30088 -2.96675,0 -5.26925,0.75726 -6.91862,2.28188 -1.649,1.51438 -2.47888,3.64113 -2.47888,6.37939 l 0,17.29102 -9.263,0 0,-33.97004 7.0225,0 1.3585,5.70463 0.45675,0 c 1.05775,-1.89813 2.47888,-3.43301 4.27325,-4.59488 1.79463,-1.17213 3.74463,-1.75288 5.85038,-1.75288 z m 27.0715,34.61317 -1.79463,-4.61588 -0.2385,0 c -1.56613,1.9605 -3.17413,3.31937 -4.82313,4.08688 -1.64937,0.75712 -3.80687,1.14087 -6.452,1.14087 -3.26725,0 -5.82912,-0.93325 -7.70674,-2.80063 -1.87725,-1.86687 -2.81088,-4.512 -2.81088,-7.96601 0,-3.59938 1.26537,-6.265 3.786,-7.97638 2.52038,-1.71175 6.32737,-2.65538 11.40988,-2.83175 l 5.89137,-0.18675 0,-1.49351 c 0,-3.44375 -1.76312,-5.16588 -5.28975,-5.16588 -2.70738,0 -5.90213,0.81963 -9.56375,2.46863 l -3.07025,-6.26488 c 3.91075,-2.04338 8.24637,-3.07026 13.0075,-3.07026 4.5535,0 8.049,0.99563 10.47612,2.97713 2.43738,1.99126 3.651,5.00988 3.651,9.05526 l 0,22.64316 -6.47225,0 z m -2.73863,-15.7454 -3.58862,0.12438 c -2.6865,0.0829 -4.69875,0.5705 -6.01613,1.46225 -1.31737,0.89225 -1.97087,2.25113 -1.97087,4.06638 0,2.61388 1.49349,3.92063 4.50187,3.92063 2.14687,0 3.85825,-0.61188 5.1445,-1.84638 1.28625,-1.2445 1.92925,-2.88363 1.92925,-4.927 l 0,-2.80026 z m 29.98638,16.35727 c -10.58,0 -15.8595,-5.80851 -15.8595,-17.41527 0,-5.77776 1.4315,-10.18601 4.315,-13.23576 2.87325,-3.04938 6.991,-4.57401 12.364,-4.57401 3.93137,0 7.458,0.7675 10.56975,2.313 l -2.728,7.16751 c -1.46263,-0.58075 -2.8215,-1.06838 -4.07663,-1.44188 -1.255,-0.37337 -2.51,-0.56012 -3.76512,-0.56012 -4.82313,0 -7.22975,3.42275 -7.22975,10.26889 0,6.64863 2.40662,9.96801 7.22975,9.96801 1.78412,0 3.4335,-0.2385 4.94762,-0.71575 1.525,-0.477 3.03938,-1.22388 4.56413,-2.23013 l 0,7.92451 c -1.50413,0.95462 -3.01863,1.61825 -4.54325,1.9815 -1.535,0.36288 -3.46438,0.5495 -5.788,0.5495 z m 12.90262,14.33489 c -2.36488,0 -4.40825,-0.24875 -6.10937,-0.75725 l 0,-7.29176 c 1.42087,0.38375 2.87325,0.58076 4.34612,0.58076 1.56625,0 2.69688,-0.43551 3.42287,-1.30676 0.71576,-0.87137 1.07863,-2.1575 1.07863,-3.85875 l 0,-36.28304 9.26288,0 0,37.64192 c 0,3.60962 -1.0375,6.38938 -3.12238,8.34988 -2.09513,1.95025 -5.05138,2.925 -8.87875,2.925 z m 2.34425,-57.70244 c 0,-3.01863 1.68025,-4.53301 5.041,-4.53301 3.36088,0 5.04113,1.51438 5.04113,4.53301 0,1.44175 -0.41501,2.56213 -1.25513,3.36075 -0.84013,0.79863 -2.10575,1.19276 -3.786,1.19276 -3.36075,0 -5.041,-1.51451 -5.041,-4.55351 z m 38.39838,42.75568 -1.79463,-4.61588 -0.2385,0 c -1.56612,1.9605 -3.17412,3.31937 -4.82313,4.08688 -1.64937,0.75712 -3.80687,1.14087 -6.45199,1.14087 -3.26726,0 -5.82913,-0.93325 -7.70675,-2.80063 -1.87726,-1.86687 -2.81088,-4.512 -2.81088,-7.96601 0,-3.59938 1.26537,-6.265 3.786,-7.97638 2.52038,-1.71175 6.32738,-2.65538 11.40988,-2.83175 l 5.89137,-0.18675 0,-1.49351 c 0,-3.44375 -1.76312,-5.16588 -5.28975,-5.16588 -2.7075,0 -5.90213,0.81963 -9.56375,2.46863 l -3.07025,-6.26488 c 3.91075,-2.04338 8.24637,-3.07026 13.0075,-3.07026 4.5535,0 8.049,0.99563 10.47612,2.97713 2.43738,1.99126 3.651,5.00988 3.651,9.05526 l 0,22.64316 -6.47225,0 z m -2.73863,-15.7454 -3.58863,0.12438 c -2.68649,0.0829 -4.69875,0.5705 -6.01612,1.46225 -1.3175,0.89225 -1.97088,2.25113 -1.97088,4.06638 0,2.61388 1.4935,3.92063 4.50188,3.92063 2.14687,0 3.85825,-0.61188 5.1445,-1.84638 1.28625,-1.2445 1.92925,-2.88363 1.92925,-4.927 l 0,-2.80026 z" /><path
     style="fill:white;fill-opacity:1;fill-rule:nonzero;stroke:none"
     d="m 0,247.48553 12.0635,0 c 5.662625,0 9.760375,0.84725 12.2925,2.54238 2.532375,1.69475 3.798375,4.36639 3.798375,8.02549 0,2.5321 -0.707625,4.6259 -2.113625,6.2707 -1.4155,1.6451 -3.46925,2.7121 -6.180875,3.2003 l 0,0.2892 c 6.480375,1.1065 9.73025,4.5162 9.73025,10.2188 0,3.8187 -1.296125,6.7997 -3.878125,8.9431 -2.572125,2.1432 -6.181375,3.2101 -10.817,3.2101 l -14.895,0 0,-42.70007 z m 4.96525,18.28427 8.175125,0 c 3.50925,0 6.031375,-0.5482 7.566625,-1.6547 1.535375,-1.0967 2.30325,-2.9513 2.30325,-5.5634 0,-2.3925 -0.847625,-4.1174 -2.56225,-5.1843 -1.714875,-1.0566 -4.4465,-1.59511 -8.185,-1.59511 l -7.29775,0 0,13.99751 z m 0,4.2073 0,15.9715 8.902875,0 c 3.449375,0 6.041375,-0.668 7.786,-1.9939 1.74475,-1.3361 2.612125,-3.4295 2.612125,-6.2709 0,-2.6522 -0.887125,-4.5961 -2.671625,-5.8422 -1.774875,-1.2465 -4.4865,-1.8645 -8.135375,-1.8645 l -8.494,0 z M 49.09,290.7738 c -4.735625,0 -8.46425,-1.4456 -11.196125,-4.3267 -2.7415,-2.8814 -4.107375,-6.8794 -4.107375,-12.0037 0,-5.1643 1.266,-9.2618 3.80825,-12.3023 2.542375,-3.0311 5.952125,-4.5564 10.239125,-4.5564 4.007875,0 7.188,1.3258 9.520875,3.9578 2.342875,2.6423 3.509375,6.1216 3.509375,10.4486 l 0,3.0607 -22.052875,0 c 0.0995,3.7584 1.046625,6.6096 2.841375,8.5638 1.804625,1.9442 4.3465,2.9211 7.616625,2.9211 3.4395,0 6.84925,-0.7179 10.219,-2.1635 l 0,4.3271 c -1.714625,0.7377 -3.32975,1.266 -4.865,1.5849 -1.525375,0.3193 -3.37,0.4886 -5.53325,0.4886 z m -1.316,-29.1214 c -2.572125,0 -4.615875,0.8373 -6.14125,2.5123 -1.53525,1.6749 -2.432875,3.988 -2.70175,6.9491 l 16.729,0 c 0,-3.0607 -0.677875,-5.404 -2.04375,-7.0289 -1.366,-1.625 -3.309875,-2.4325 -5.84225,-2.4325 z m 38.77125,28.5332 -23.21925,0 0,-3.2999 17.466625,-24.9441 -16.38,0 0,-3.7687 21.694,0 0,3.7687 -17.227625,24.4754 17.66625,0 0,3.7686 z m 21.7435,0.5882 c -2.08388,0 -3.988,-0.3887 -5.71288,-1.1565 -1.7245,-0.7675 -3.170245,-1.9541 -4.33662,-3.549 l -0.349,0 c 0.22925,1.8642 0.349,3.6387 0.349,5.3135 l 0,13.1702 -4.845125,0 0,-46.3791 3.938,0 0.677875,4.3867 0.22925,0 c 1.246125,-1.7548 2.69188,-3.0208 4.34687,-3.7986 1.65475,-0.7773 3.55888,-1.1763 5.70263,-1.1763 4.247,0 7.51712,1.4556 9.82987,4.3569 2.30313,2.9012 3.45963,6.9686 3.45963,12.2127 0,5.254 -1.17638,9.3415 -3.51913,12.2528 -2.35312,2.9111 -5.60312,4.3667 -9.77037,4.3667 z m -0.708,-29.0615 c -3.27012,0 -5.63275,0.8971 -7.08838,2.7118 -1.465495,1.8145 -2.213495,4.6955 -2.25312,8.6435 l 0,1.0867 c 0,4.4964 0.747625,7.7166 2.25312,9.6509 1.49525,1.9339 3.89801,2.9009 7.20813,2.9009 2.77163,0 4.93488,-1.1165 6.50025,-3.3598 1.56512,-2.233 2.35275,-5.3237 2.35275,-9.2519 0,-3.9976 -0.78763,-7.0582 -2.35275,-9.1921 -1.56537,-2.1334 -3.76863,-3.19 -6.62,-3.19 z m 47.6345,12.442 c 0,5.2143 -1.316,9.2919 -3.938,12.223 -2.632,2.931 -6.261,4.3965 -10.89675,4.3965 -2.86125,0 -5.40363,-0.6778 -7.627,-2.024 -2.21312,-1.3357 -3.92813,-3.27 -5.13425,-5.7822 -1.21637,-2.5123 -1.8145,-5.4535 -1.8145,-8.8133 0,-5.2239 1.306,-9.2916 3.91812,-12.2029 2.60188,-2.9111 6.231,-4.3667 10.85713,-4.3667 4.48612,0 8.0355,1.4956 10.67738,4.4762 2.64187,2.981 3.95787,7.009 3.95787,12.0934 z m -24.38575,0 c 0,4.0875 0.81737,7.1983 2.45262,9.3415 1.63488,2.1438 4.03763,3.2103 7.21813,3.2103 3.17025,0 5.58287,-1.0665 7.228,-3.19 1.64475,-2.1338 2.46225,-5.254 2.46225,-9.3618 0,-4.0776 -0.8175,-7.1681 -2.46225,-9.2817 -1.64513,-2.1037 -4.07763,-3.1603 -7.28787,-3.1603 -3.1805,0 -5.57325,1.0368 -7.18838,3.1203 -1.615,2.0837 -2.4225,5.1945 -2.4225,9.3217 z m 51.07388,7.2978 c 0,2.981 -1.10688,5.2742 -3.33001,6.8892 -2.22337,1.625 -5.33362,2.4325 -9.3515,2.4325 -4.23699,0 -7.54712,-0.6778 -9.92975,-2.024 l 0,-4.496 c 1.54525,0.7774 3.19013,1.3957 4.95501,1.8443 1.76462,0.4486 3.45937,0.6679 5.09425,0.6679 2.53237,0 4.47662,-0.3987 5.84212,-1.2062 1.366,-0.8075 2.04388,-2.0437 2.04388,-3.6989 0,-1.2461 -0.53826,-2.313 -1.61513,-3.2002 -1.08675,-0.8873 -3.19,-1.9344 -6.33037,-3.1405 -2.981,-1.1065 -5.09463,-2.0735 -6.35113,-2.9013 -1.256,-0.8273 -2.19325,-1.7645 -2.80125,-2.8211 -0.618,-1.0471 -0.917,-2.3031 -0.917,-3.7687 0,-2.6122 1.05663,-4.6658 3.18013,-6.1714 2.1235,-1.5154 5.03462,-2.273 8.7335,-2.273 3.44937,0 6.80912,0.708 10.109,2.1037 l -1.7245,3.9479 c -3.22013,-1.3259 -6.13138,-1.9839 -8.7335,-1.9839 -2.30313,0 -4.03763,0.3589 -5.20413,1.0768 -1.16637,0.7176 -1.75462,1.7146 -1.75462,2.9806 0,0.8575 0.21937,1.5854 0.658,2.1938 0.43862,0.5981 1.14625,1.1763 2.1235,1.7146 0.967,0.5485 2.84137,1.3357 5.603,2.3729 3.7985,1.3755 6.36062,2.7716 7.6965,4.1772 1.33575,1.3958 2.004,3.1603 2.004,5.2838 z m -14.9545,-28.2441 c 0.93687,-1.20609 1.94387,-2.67196 3.03062,-4.37672 1.07675,-1.71462 1.924,-3.21025 2.55225,-4.47625 l 5.90213,0 0,0.618 c -0.8575,1.26638 -2.1335,2.8215 -3.82825,4.67576 -1.69513,1.84462 -3.16063,3.28001 -4.40675,4.28701 l -3.25,0 0,-0.7278 z m 33.17812,4.3767 c 1.4255,0 2.70175,0.1197 3.82825,0.359 l -0.668,4.4964 c -1.32587,-0.299 -2.49238,-0.4387 -3.50925,-0.4387 -2.58237,0 -4.80537,1.0468 -6.63975,3.1504 -1.84437,2.1036 -2.76175,4.7258 -2.76175,7.8563 l 0,17.1775 -4.84512,0 0,-32.0127 3.99762,0 0.55838,5.9319 0.22925,0 c 1.18637,-2.0835 2.62212,-3.6886 4.297,-4.8254 1.67487,-1.1264 3.50924,-1.6947 5.51337,-1.6947 z m 20.87575,33.1891 c -4.73562,0 -8.46425,-1.4456 -11.19612,-4.3267 -2.7415,-2.8814 -4.10738,-6.8794 -4.10738,-12.0037 0,-5.1643 1.266,-9.2618 3.80838,-12.3023 2.54224,-3.0311 5.95199,-4.5564 10.23899,-4.5564 4.00788,0 7.188,1.3258 9.52088,3.9578 2.34287,2.6423 3.50937,6.1216 3.50937,10.4486 l 0,3.0607 -22.05287,0 c 0.0995,3.7584 1.04662,6.6096 2.84137,8.5638 1.80463,1.9442 4.3465,2.9211 7.61663,2.9211 3.4395,0 6.84925,-0.7179 10.219,-2.1635 l 0,4.3271 c -1.71462,0.7377 -3.32975,1.266 -4.865,1.5849 -1.52538,0.3193 -3.37,0.4886 -5.53325,0.4886 z m -1.316,-29.1214 c -2.572,0 -4.61587,0.8373 -6.14125,2.5123 -1.53525,1.6749 -2.43287,3.988 -2.70175,6.9491 l 16.729,0 c 0,-3.0607 -0.67787,-5.404 -2.04375,-7.0289 -1.366,-1.625 -3.30987,-2.4325 -5.84225,-2.4325 z m 42.47013,24.2363 -0.259,0 c -2.24325,3.2601 -5.59313,4.8851 -10.0495,4.8851 -4.18751,0 -7.44738,-1.4357 -9.77038,-4.297 -2.323,-2.8612 -3.4895,-6.9289 -3.4895,-12.2127 0,-5.2742 1.1665,-9.3717 3.49937,-12.2928 2.34288,-2.9211 5.59313,-4.3866 9.76051,-4.3866 4.3465,0 7.6765,1.5852 9.98962,4.7356 l 0.37875,0 -0.1995,-2.3031 -0.11938,-2.2529 0,-13.03052 4.84513,0 0,45.45182 -3.93813,0 -0.648,-4.2969 z m -9.69063,0.8174 c 3.31013,0 5.70263,-0.8971 7.19825,-2.7018 1.48538,-1.7944 2.23338,-4.7055 2.23338,-8.7134 l 0,-1.0268 c 0,-4.5362 -0.758,-7.7665 -2.26313,-9.7104 -1.5155,-1.9343 -3.91825,-2.9013 -7.22837,-2.9013 -2.841,0 -5.02438,1.1067 -6.53,3.3098 -1.5055,2.2135 -2.263,5.3337 -2.263,9.3619 0,4.0875 0.74762,7.178 2.24325,9.2617 1.50512,2.0835 3.70875,3.1203 6.60962,3.1203 z m 42.21113,3.4795 0,-20.707 c 0,-2.6122 -0.59813,-4.556 -1.78476,-5.8423 -1.18637,-1.2862 -3.04062,-1.924 -5.57299,-1.924 -3.34988,0 -5.8025,0.8971 -7.36763,2.7118 -1.55512,1.8145 -2.33287,4.7955 -2.33287,8.9627 l 0,16.7988 -4.84513,0 0,-32.0127 3.938,0 0.78738,4.3867 0.2395,0 c 0.98687,-1.5851 2.3825,-2.8014 4.17725,-3.6688 1.78437,-0.8674 3.7885,-1.3061 5.98174,-1.3061 3.85838,0 6.75963,0.9372 8.70351,2.7915 1.95412,1.8644 2.92112,4.8355 2.92112,8.923 l 0,20.8864 -4.84512,0 z m 16.0005,0 -4.84513,0 0,-32.0127 4.84513,0 0,32.0127 z m -5.254,-40.68644 c 0,-1.1065 0.26925,-1.924 0.81737,-2.44238 0.53863,-0.50837 1.22638,-0.76775 2.04375,-0.76775 0.77775,0 1.44575,0.25938 2.01413,0.78763 0.56825,0.52825 0.84712,1.33587 0.84712,2.4225 0,1.08675 -0.27887,1.90425 -0.84712,2.44275 -0.56838,0.52839 -1.23638,0.79759 -2.01413,0.79759 -0.81737,0 -1.50512,-0.2692 -2.04375,-0.79759 -0.54812,-0.5385 -0.81737,-1.356 -0.81737,-2.44275 z m 32.75925,40.68644 -0.957,-4.5559 -0.23925,0 c -1.59513,2.0038 -3.19038,3.3598 -4.77563,4.0773 -1.585,0.7078 -3.56887,1.0668 -5.94175,1.0668 -3.17025,0 -5.663,-0.8175 -7.46725,-2.4626 -1.79462,-1.6349 -2.70175,-3.9579 -2.70175,-6.9785 0,-6.4605 5.17425,-9.85 15.51263,-10.1594 l 5.43362,-0.1792 0,-1.984 c 0,-2.5125 -0.5385,-4.3668 -1.62525,-5.5633 -1.0765,-1.1962 -2.80137,-1.7944 -5.18425,-1.7944 -2.66175,0 -5.68275,0.8174 -9.0525,2.4524 l -1.48525,-3.7085 c 1.57525,-0.8575 3.29988,-1.5353 5.18413,-2.014 1.87449,-0.4886 3.75875,-0.7378 5.65262,-0.7378 3.80875,0 6.63988,0.8477 8.4845,2.5424 1.83437,1.6948 2.76163,4.4164 2.76163,8.1553 l 0,21.8434 -3.59925,0 z m -10.94675,-3.4196 c 3.01112,0 5.38375,-0.8274 7.10862,-2.4824 1.7245,-1.6551 2.582,-3.9679 2.582,-6.9488 l 0,-2.8914 -4.84512,0.1995 c -3.85825,0.1397 -6.63975,0.7377 -8.33488,1.8047 -1.70475,1.0565 -2.56225,2.7116 -2.56225,4.9446 0,1.755 0.52875,3.0909 1.59525,4.0079 1.057,0.9074 2.54238,1.3659 4.45638,1.3659" /></svg>